<svg xmlns="http://www.w3.org/2000/svg" role="img" viewBox="0 0 24 24" fill="currentColor">
  <path d="M20.317 4.369a19.791 19.791 0 0 0-4.885-1.515.074.074 0 0 0-.079.037c-.21.375-.444.864-.608 1.249-1.844-.276-3.68-.276-5.486 0-.164-.393-.405-.874-.617-1.249a.077.077 0 0 0-.079-.037 19.736 19.736 0 0 0-4.885 1.515.07.07 0 0 0-.032.028C.533 9.045-.32 13.58.099 18.057a.082.082 0 0 0 .031.056c2.052 1.5 4.041 2.415 5.992 3.029a.076.076 0 0 0 .084-.027c.461-.63.873-1.295 1.226-1.994a.076.076 0 0 0-.041-.105c-.652-.247-1.274-.549-1.872-.892a.077.077 0 0 1-.007-.127c.125-.094.25-.192.369-.291a.074.074 0 0 1 .077-.01c3.927 1.793 8.18 1.793 12.061 0a.074.074 0 0 1 .078.009c.12.099.244.198.37.292a.077.077 0 0 1-.006.127 12.298 12.298 0 0 1-1.873.891.076.076 0 0 0-.04.106c.36.698.772 1.362 1.225 1.993a.076.076 0 0 0 .084.028c1.961-.614 3.95-1.529 6.002-3.028a.077.077 0 0 0 .031-.055c.5-5.177-.838-9.673-3.548-13.66a.061.061 0 0 0-.031-.029zM8.02 15.331c-1.183 0-2.157-1.085-2.157-2.419 0-1.333.956-2.419 2.157-2.419 1.21 0 2.176 1.096 2.157 2.419 0 1.334-.956 2.419-2.157 2.419zm7.958 0c-1.183 0-2.157-1.085-2.157-2.419 0-1.333.955-2.419 2.157-2.419 1.21 0 2.176 1.096 2.157 2.419 0 1.334-.947 2.419-2.157 2.419Z"/>
</svg>
