<svg xmlns="http://www.w3.org/2000/svg" version="1.1" xmlns:xlink="http://www.w3.org/1999/xlink" width="1000" height="1000"><style>
    #light-icon {
      display: inline;
    }
    #dark-icon {
      display: none;
    }

    @media (prefers-color-scheme: dark) {
      #light-icon {
        display: none;
      }
      #dark-icon {
        display: inline;
      }
    }
  </style><g id="light-icon"><svg xmlns="http://www.w3.org/2000/svg" version="1.1" xmlns:xlink="http://www.w3.org/1999/xlink" width="1000" height="1000"><g><g transform="matrix(1.953125,0,0,1.953125,0,0)"><svg xmlns="http://www.w3.org/2000/svg" version="1.1" xmlns:xlink="http://www.w3.org/1999/xlink" width="512" height="512"><svg width="512" height="512" viewBox="0 0 512 512" fill="none" xmlns="http://www.w3.org/2000/svg">
<path d="M120.945 112.863C135.62 109.653 153.052 107.73 169.442 109.599C185.836 111.468 201.08 117.115 211.542 128.937C220.226 138.755 221.523 151.53 222.247 164.864C222.963 178.067 223.108 191.875 229.948 203.012L229.949 203.013C232.134 206.565 234.88 209.406 237.742 212.052C240.57 214.667 243.43 217.026 246.141 219.779C246.389 220.894 246.278 221.362 246.189 221.521C246.152 221.587 246.056 221.725 245.516 221.739C244.967 221.754 244.263 221.626 243.404 221.454C242.601 221.293 241.66 221.092 240.815 221.054H240.816C238.333 220.938 234.998 220.858 232.495 221.056C231.039 221.169 229.406 221.602 227.962 221.933C226.445 222.28 225.118 222.521 224.038 222.406H224.036C223.431 222.343 222.441 222.058 221.163 221.593C219.911 221.137 218.467 220.541 216.987 219.908C214.066 218.66 210.951 217.243 209.116 216.603H209.115C199.953 213.386 191.032 211.176 181.369 209.665H181.37C162.498 206.69 143.894 205.762 125.295 211.41L125.407 213.351L141.812 216.33C144.544 217.04 151.333 218.498 157.827 220.364C161.075 221.298 164.185 222.317 166.589 223.366C167.793 223.892 168.79 224.411 169.529 224.914C170.295 225.436 170.664 225.861 170.791 226.15C171.155 226.984 171.187 228.123 170.895 229.548C170.606 230.958 170.026 232.53 169.308 234.148C168.592 235.761 167.758 237.379 166.978 238.888C166.304 240.191 165.661 241.435 165.193 242.489L165.004 242.93C158.09 259.623 159.613 276.105 169.457 291.379L169.458 291.38C170.28 292.653 171.166 293.682 171.921 294.558C172.699 295.46 173.289 296.149 173.662 296.833C174.008 297.469 174.138 298.052 174.004 298.744C173.86 299.482 173.398 300.443 172.339 301.765C168.059 307.079 160.634 310.583 152.453 312.579C144.297 314.569 135.554 315.02 128.826 314.357H128.825C104.297 311.957 81.6452 299.494 62.8248 282.409C44.0066 265.326 29.0777 243.674 19.9977 223.019C11.5193 203.713 6.7716 185.975 19.4401 167.703L19.441 167.702C29.4943 153.18 46.1403 141.369 64.694 132.226C83.2327 123.09 103.586 116.662 120.945 112.863Z" fill="black" stroke="black" stroke-width="2"></path>
<path d="M342.543 109.61C358.93 107.739 376.361 109.661 391.046 112.881L391.047 112.882C408.406 116.681 428.759 123.107 447.298 132.243C465.852 141.386 482.498 153.198 492.551 167.721C504.824 185.441 500.771 202.624 492.78 221.23L491.995 223.036C482.915 243.691 467.986 265.345 449.167 282.428C430.347 299.512 407.695 311.974 383.167 314.374H383.166C376.428 315.037 367.685 314.583 359.532 312.591C351.353 310.592 343.932 307.087 339.652 301.782V301.781L339.28 301.304C338.476 300.227 338.105 299.413 337.98 298.769C337.845 298.08 337.974 297.497 338.322 296.859C338.696 296.174 339.288 295.483 340.068 294.579C340.824 293.702 341.712 292.672 342.534 291.398V291.397C352.378 276.123 353.902 259.641 346.988 242.948V242.947C346.515 241.806 345.783 240.396 345.013 238.908C344.233 237.401 343.4 235.785 342.684 234.173C341.966 232.556 341.385 230.985 341.097 229.574C340.805 228.148 340.836 227.006 341.201 226.167L341.202 226.166C341.261 226.03 341.423 225.804 341.776 225.505C342.117 225.214 342.577 224.903 343.144 224.579C344.277 223.931 345.741 223.284 347.298 222.679C350.405 221.471 353.754 220.48 355.288 220.026L355.289 220.027C365.385 217.065 375.943 214.998 386.466 213.828H387.263L387.411 213.005C387.488 212.577 387.397 212.133 387.086 211.782C386.824 211.487 386.491 211.356 386.287 211.292C386.072 211.224 385.843 211.184 385.699 211.157C385.52 211.124 385.444 211.107 385.402 211.093L385.373 211.083L384.219 210.737C359.838 203.653 326.554 208.376 303.24 216.485C301.364 217.136 298.169 218.586 295.172 219.866C293.654 220.514 292.173 221.126 290.891 221.593C289.585 222.068 288.576 222.36 287.962 222.424C286.866 222.531 285.529 222.288 284.014 221.943C282.568 221.614 280.942 221.187 279.498 221.074C277.308 220.901 274.48 220.941 272.144 221.031L271.176 221.072C270.336 221.11 269.397 221.312 268.596 221.472C267.738 221.645 267.033 221.772 266.483 221.758C265.941 221.743 265.842 221.605 265.804 221.537C265.715 221.378 265.602 220.911 265.85 219.798C268.563 217.053 271.421 214.695 274.25 212.077C277.112 209.428 279.858 206.582 282.043 203.03H282.044C288.884 191.893 289.028 178.085 289.745 164.883C290.469 151.548 291.766 138.772 300.45 128.954L300.449 128.953C310.911 117.131 326.152 111.481 342.543 109.61Z" fill="black" stroke="black" stroke-width="2"></path>
<path d="M255.869 11.6735C258.905 11.5737 263.622 12.6493 268.401 14.1686C273.147 15.677 277.809 17.5733 280.684 19.0182V19.0192C291.208 24.3258 304.017 34.9608 314.954 47.112C325.902 59.2758 334.84 72.8095 337.77 83.8542V83.8561C338.329 85.9548 338.558 87.142 338.319 88.0983C338.103 88.9654 337.434 89.8392 335.507 91.0495C332.81 92.7346 328.688 94.174 324.265 95.612C319.907 97.0287 315.275 98.4386 311.772 100.059C301.289 104.893 293.893 110.821 288.582 117.582C283.274 124.339 280.084 131.881 277.949 139.892C275.818 147.89 274.729 156.394 273.645 165.06C272.558 173.748 271.475 182.61 269.365 191.433V191.435C268.575 194.76 267.531 199.171 265.621 202.843C263.714 206.511 261.065 209.216 257.144 209.541C254.668 209.746 252.691 209.223 251.072 208.247C249.44 207.262 248.116 205.78 247.021 203.987C244.813 200.371 243.643 195.685 242.71 191.817C240.576 182.975 239.485 174.085 238.397 165.364C237.311 156.665 236.229 148.123 234.103 140.087C231.973 132.037 228.787 124.456 223.473 117.665C218.155 110.87 210.743 104.912 200.225 100.059H200.224C196.721 98.4487 192.085 97.038 187.724 95.6188C183.575 94.2685 179.693 92.9158 177.011 91.3639L176.49 91.0504C174.562 89.8398 173.893 88.9656 173.677 88.0983C173.438 87.142 173.668 85.9548 174.227 83.8561V83.8551C177.883 70.0784 190.429 52.2723 206.105 37.7448C221.794 23.2046 240.348 12.2002 255.868 11.6725L255.869 11.6735Z" fill="black" stroke="black" stroke-width="2"></path>
<path d="M200.535 314.596C201.853 314.315 203.437 314.692 205.225 315.362C206.105 315.692 206.975 316.068 207.859 316.435C208.726 316.796 209.605 317.147 210.439 317.39H210.441C216.808 319.232 223.429 320.67 230.078 321.448C231.778 321.647 233.304 321.663 234.49 321.701C235.094 321.72 235.596 321.745 236.013 321.795C236.438 321.845 236.704 321.915 236.865 321.991C237 322.054 237.011 322.095 237.014 322.102C237.028 322.134 237.073 322.274 237.01 322.631C236.878 323.377 236.366 324.597 235.263 326.572C224.883 345.127 206.527 360.655 185.31 371.794C164.099 382.929 140.112 389.634 118.571 390.609C113.45 390.841 105.402 391.244 97.9133 390.433C94.1701 390.028 90.6143 389.323 87.6604 388.167C84.7007 387.008 82.436 385.431 81.1379 383.339L81.137 383.339C79.0293 379.946 77.9953 375.201 77.8528 369.7C77.7107 364.215 78.4568 358.073 79.8235 351.967C82.5654 339.719 87.7512 327.829 93.0227 321.806L93.0237 321.807C93.9513 320.75 94.5729 320.204 95.0276 319.945C95.4129 319.725 95.6361 319.731 95.8811 319.802C96.239 319.907 96.6404 320.154 97.3743 320.607C98.0641 321.033 98.9403 321.562 100.102 322.05L100.103 322.051C118.054 329.56 141.858 330.371 160.554 324.763C162.329 324.231 163.932 323.454 165.396 322.822C166.818 322.208 168.155 321.706 169.613 321.515C169.673 321.543 169.714 321.568 169.739 321.588C169.776 321.617 169.786 321.637 169.79 321.646C169.802 321.671 169.845 321.806 169.745 322.141C169.54 322.834 168.907 323.801 167.995 324.885C166.211 327.006 163.753 329.122 163.144 329.612L163.143 329.613C161.903 330.615 160.462 331.495 158.964 332.422C157.493 333.334 155.966 334.292 154.678 335.412C153.501 336.431 152.669 337.341 152.18 338.166C151.694 338.985 151.458 339.881 151.8 340.728C152.132 341.548 152.883 342.008 153.604 342.272C154.345 342.544 155.248 342.684 156.194 342.746C159.954 342.991 165.405 342.05 167.785 341.387L167.784 341.386C175.817 339.163 184.87 332.501 190.34 326.686L190.341 326.684C190.95 326.034 191.787 324.943 192.703 323.72C193.636 322.475 194.671 321.063 195.716 319.704C196.761 318.344 197.791 317.07 198.695 316.112C199.147 315.632 199.55 315.251 199.893 314.983C200.258 314.697 200.465 314.611 200.532 314.597L200.535 314.596Z" fill="black" stroke="black" stroke-width="2"></path>
<path d="M310.087 314.502C310.472 314.475 310.824 314.481 311.203 314.541L311.49 314.595L311.5 314.597C311.57 314.611 311.779 314.698 312.145 314.983C312.489 315.252 312.893 315.632 313.345 316.111C314.25 317.069 315.277 318.343 316.321 319.703C317.364 321.062 318.397 322.473 319.329 323.719C320.243 324.942 321.08 326.033 321.689 326.683L321.691 326.685C324.964 330.158 329.475 333.908 334.414 336.911C339.341 339.907 344.773 342.207 349.877 342.689H349.878C351.097 342.803 353.85 343.068 356.153 342.785C357.281 342.647 358.477 342.359 359.32 341.718C359.763 341.38 360.134 340.925 360.313 340.333C360.491 339.744 360.451 339.115 360.249 338.481C360.103 338.026 359.787 337.608 359.472 337.261C359.138 336.892 358.717 336.507 358.25 336.12C357.317 335.344 356.126 334.496 354.914 333.674C353.7 332.85 352.433 332.03 351.355 331.321C350.257 330.599 349.38 330.008 348.886 329.611C348.277 329.121 345.819 327.005 344.035 324.884C343.122 323.799 342.49 322.832 342.285 322.14C342.186 321.804 342.228 321.671 342.24 321.645C342.244 321.636 342.253 321.617 342.292 321.587C342.316 321.567 342.357 321.542 342.417 321.515C343.874 321.705 345.212 322.207 346.634 322.821C348.098 323.453 349.701 324.23 351.476 324.763H351.477C370.152 330.351 393.955 329.559 411.926 322.051L411.925 322.05C413.088 321.566 413.964 321.04 414.655 320.615C415.39 320.163 415.791 319.913 416.151 319.807C416.397 319.735 416.62 319.73 417.003 319.947C417.457 320.205 418.079 320.749 419.006 321.807C424.277 327.819 429.465 339.708 432.207 351.96C433.573 358.067 434.319 364.21 434.177 369.696C434.035 375.199 433.001 379.946 430.893 383.338L430.892 383.339C429.594 385.43 427.328 387.005 424.367 388.163C421.411 389.318 417.854 390.02 414.11 390.425C406.619 391.233 398.571 390.83 393.458 390.608H393.459C352.08 388.732 307.06 367.778 282.694 335.526L282.692 335.524L282.37 335.088C281.5 333.891 279.863 331.508 278.331 329.129C277.456 327.772 276.625 326.431 275.996 325.325C275.68 324.771 275.422 324.287 275.236 323.895C275.036 323.477 274.959 323.245 274.945 323.165L274.944 323.164L274.914 322.929C274.898 322.716 274.923 322.567 274.958 322.465C275.002 322.334 275.08 322.222 275.214 322.113C275.522 321.866 276.086 321.673 276.927 321.569C277.741 321.469 278.659 321.468 279.56 321.48C280.413 321.492 281.321 321.52 281.965 321.448L281.969 321.447C288.6 320.689 295.243 319.25 301.612 317.389V317.39C302.875 317.021 304.298 316.366 305.588 315.815C306.936 315.24 308.155 314.771 309.183 314.628L310.087 314.502Z" fill="black" stroke="black" stroke-width="2"></path>
<path d="M230.442 234.708C240.828 233.168 248.214 237.783 255.116 244.894L255.344 245.128L255.665 245.183C255.933 245.229 256.165 245.177 256.312 245.131C256.468 245.082 256.612 245.012 256.733 244.944C256.976 244.809 257.23 244.624 257.475 244.429C257.969 244.034 258.54 243.5 259.091 242.965C259.643 242.428 260.209 241.857 260.677 241.392C261.169 240.903 261.521 240.566 261.704 240.424V240.423C271.185 233.048 281.048 233.165 288.03 237.617C294.928 242.015 299.19 250.751 297.474 261.197L297.387 261.696C296.044 269.065 290.7 277.987 283.967 286.225C277.253 294.439 269.277 301.828 262.85 306.143L262.849 306.144C261.003 307.387 259.645 308.265 258.519 308.831C257.405 309.39 256.599 309.602 255.853 309.583C255.102 309.563 254.292 309.307 253.178 308.707C252.334 308.252 251.368 307.63 250.167 306.823L248.884 305.954L248.241 305.512C241.56 300.841 233.335 293.084 226.61 284.46C219.86 275.802 214.758 266.441 214.085 258.559L214.034 257.801C213.815 253.297 215.404 247.866 218.354 243.367C221.306 238.867 225.52 235.445 230.443 234.711L230.442 234.708Z" fill="black" stroke="black" stroke-width="2"></path>
<path d="M256.171 328.728C256.237 328.748 256.353 328.805 256.513 328.957C256.52 328.968 256.53 328.983 256.542 329.004C256.583 329.075 256.636 329.179 256.702 329.32C256.832 329.6 256.988 329.98 257.163 330.441C257.511 331.359 257.916 332.542 258.316 333.767C259.114 336.211 259.88 338.778 260.13 339.64V339.641C263.39 350.927 264.469 362.479 265.001 374.174C265.532 385.828 265.521 397.708 266.622 409.435V409.436C267.794 421.911 270.093 434.7 272.209 447.412C274.329 460.145 276.268 472.814 276.749 485.136V485.137C276.819 486.925 276.848 488.811 276.545 490.576C276.244 492.332 275.625 493.892 274.456 495.084L274.455 495.085C271.669 497.934 266.493 499.547 260.836 500.107C255.223 500.662 249.406 500.154 245.568 499.005H245.567C241.126 497.679 238.56 496.286 237.089 494.303C235.627 492.331 235.105 489.578 235.284 485.138V485.136C235.764 472.814 237.703 460.145 239.823 447.412C241.939 434.7 244.238 421.911 245.411 409.436C246.511 397.775 246.504 385.969 247.025 374.378C247.531 363.111 248.536 351.97 251.508 341.058L251.801 340.003C252.169 338.715 252.766 336.515 253.426 334.377C254.099 332.198 254.789 330.254 255.314 329.398C255.593 328.951 255.856 328.771 256.003 328.727C256.061 328.71 256.111 328.709 256.171 328.728Z" fill="black" stroke="black" stroke-width="2"></path>
<path d="M199.508 226.875C202.714 226.464 204.169 226.99 204.792 227.645C205.396 228.28 205.557 229.405 205.149 231.166C204.752 232.875 203.896 234.852 202.963 236.831C202.054 238.76 201.051 240.73 200.478 242.27C192.49 263.725 199.666 282.972 216.214 297.876V297.877C216.875 298.472 217.699 299.043 218.489 299.587C219.3 300.146 220.09 300.687 220.781 301.264C222.158 302.413 222.818 303.439 222.629 304.599C222.621 304.609 222.614 304.625 222.597 304.641C222.549 304.686 222.462 304.749 222.317 304.817C222.019 304.956 221.57 305.076 220.965 305.155C219.76 305.312 218.16 305.282 216.452 305.14C213.046 304.856 209.449 304.145 208.216 303.798C199.268 301.239 190.468 295.891 183.892 288.843C177.316 281.795 173.017 273.108 172.929 263.868C172.86 256.575 175.356 247.82 179.986 240.627C184.614 233.435 191.287 227.934 199.509 226.876L199.508 226.875Z" fill="black" stroke="black" stroke-width="2"></path>
<path d="M309.039 226.722C310.645 226.553 312.541 226.819 314.478 227.352C316.724 227.969 318.921 228.916 320.599 229.811V229.81C329.46 234.55 335.264 243.383 337.596 253.159C339.929 262.939 338.758 273.547 333.809 281.752C330.254 287.635 323.191 294.139 315.106 298.84C307.257 303.403 298.649 306.15 291.535 305.155L290.851 305.048C290.016 304.901 289.547 304.701 289.303 304.53C289.098 304.386 289.094 304.297 289.091 304.258C289.085 304.158 289.12 303.942 289.334 303.579C289.54 303.228 289.864 302.827 290.287 302.39C291.132 301.515 292.261 300.612 293.318 299.81C294.322 299.05 295.349 298.321 295.818 297.898C312.109 283.227 319.295 264.347 311.917 243.296L311.554 242.291C311.169 241.251 310.589 240.017 309.982 238.734C309.367 237.434 308.713 236.063 308.144 234.694C307.574 233.324 307.105 231.995 306.851 230.787C306.595 229.568 306.579 228.566 306.818 227.804C306.84 227.735 306.968 227.534 307.312 227.299C307.633 227.08 307.991 226.934 308.231 226.887L309.039 226.728V226.722Z" fill="black" stroke="black" stroke-width="2"></path>
<path d="M192.37 382.762C194.014 382.425 196.295 382.469 199.415 383.004H199.416C206.346 384.186 214.007 387.663 220.263 392.603C226.527 397.549 231.27 403.87 232.559 410.685V410.686C232.731 411.59 232.712 412.138 232.634 412.442C232.569 412.695 232.489 412.713 232.464 412.723C232.366 412.761 232.125 412.792 231.662 412.681C231.218 412.574 230.677 412.361 230.064 412.058C228.84 411.451 227.468 410.557 226.206 409.694C224.989 408.863 223.812 408.015 223.102 407.608L223.1 407.607L221.616 406.762C220.095 405.899 218.464 405.008 216.779 404.276C214.78 403.409 212.647 402.741 210.444 402.609L210.439 402.585H209.609L209.611 403.589L208.657 403.799C210.054 410.191 214.694 415.758 219.328 420.033C219.811 420.479 220.67 421.147 221.623 421.888C222.597 422.645 223.711 423.509 224.763 424.382C225.819 425.26 226.78 426.121 227.459 426.87C227.799 427.246 228.042 427.565 228.19 427.82C228.312 428.029 228.33 428.128 228.334 428.141C228.304 428.428 228.204 428.605 228.066 428.738C227.909 428.891 227.646 429.04 227.23 429.149C226.379 429.373 225.155 429.359 223.748 429.169C220.964 428.793 217.906 427.795 216.757 427.357V427.357L216.146 427.118C209.843 424.592 203.711 420.125 198.835 414.646C193.957 409.164 190.386 402.727 189.123 396.296L189.009 395.674C188.558 393.059 188.273 390.815 188.28 388.946C188.288 387.069 188.59 385.685 189.21 384.708C189.803 383.773 190.762 383.091 192.37 382.762Z" fill="black" stroke="black" stroke-width="2"></path>
<path d="M312.6 383.002C315.87 382.442 318.224 382.387 319.896 382.72C321.528 383.046 322.456 383.727 323.011 384.65C323.596 385.625 323.853 387.012 323.816 388.908C323.78 390.792 323.458 393.047 323.006 395.672V395.673C321.784 402.785 316.767 411.127 309.993 417.767C303.214 424.413 294.866 429.168 287.126 429.389C285.738 429.429 284.838 429.317 284.292 429.139C284.025 429.053 283.882 428.962 283.81 428.901C283.747 428.848 283.736 428.815 283.732 428.801C283.717 428.747 283.698 428.524 283.961 428.037C284.211 427.574 284.634 427.024 285.203 426.412C286.337 425.191 287.901 423.878 289.353 422.719C290.751 421.603 292.124 420.574 292.709 420.03L292.708 420.029C297.342 415.753 301.982 410.189 303.378 403.797L303.643 402.584H302.381C297.426 402.565 292.699 405.439 288.896 407.605C288.255 407.969 287.422 408.543 286.547 409.147C285.653 409.764 284.684 410.434 283.716 411.037C282.743 411.642 281.81 412.154 280.998 412.467C280.145 412.796 279.617 412.829 279.345 412.742H279.346C279.344 412.742 279.348 412.754 279.332 412.721C279.299 412.654 279.254 412.497 279.254 412.203C279.253 411.609 279.432 410.779 279.733 409.833C280.329 407.963 281.283 405.991 281.635 405.24L281.636 405.238C286.992 393.724 299.592 385.229 312.6 383.002Z" fill="black" stroke="black" stroke-width="2"></path>
</svg></svg></g></g></svg></g><g id="dark-icon"><svg xmlns="http://www.w3.org/2000/svg" version="1.1" xmlns:xlink="http://www.w3.org/1999/xlink" width="1000" height="1000"><g><g transform="matrix(1.953125,0,0,1.953125,0,0)"><svg xmlns="http://www.w3.org/2000/svg" version="1.1" xmlns:xlink="http://www.w3.org/1999/xlink" width="512" height="512"><svg width="512" height="512" viewBox="0 0 512 512" fill="none" xmlns="http://www.w3.org/2000/svg">
<path d="M120.945 112.863C135.62 109.653 153.052 107.73 169.442 109.599C185.836 111.468 201.08 117.115 211.542 128.937C220.226 138.755 221.523 151.53 222.247 164.864C222.963 178.067 223.108 191.875 229.948 203.012L229.949 203.013C232.134 206.565 234.88 209.406 237.742 212.052C240.57 214.667 243.43 217.026 246.141 219.779C246.389 220.894 246.278 221.362 246.189 221.521C246.152 221.587 246.056 221.725 245.516 221.739C244.967 221.754 244.263 221.626 243.404 221.454C242.601 221.293 241.66 221.092 240.815 221.054H240.816C238.333 220.938 234.998 220.858 232.495 221.056C231.039 221.169 229.406 221.602 227.962 221.933C226.445 222.28 225.118 222.521 224.038 222.406H224.036C223.431 222.343 222.441 222.058 221.163 221.593C219.911 221.137 218.467 220.541 216.987 219.908C214.066 218.66 210.951 217.243 209.116 216.603H209.115C199.953 213.386 191.032 211.176 181.369 209.665H181.37C162.498 206.69 143.894 205.762 125.295 211.41L125.407 213.351L141.812 216.33C144.544 217.04 151.333 218.498 157.827 220.364C161.075 221.298 164.185 222.317 166.589 223.366C167.793 223.892 168.79 224.411 169.529 224.914C170.295 225.436 170.664 225.861 170.791 226.15C171.155 226.984 171.187 228.123 170.895 229.548C170.606 230.958 170.026 232.53 169.308 234.148C168.592 235.761 167.758 237.379 166.978 238.888C166.304 240.191 165.661 241.435 165.193 242.489L165.004 242.93C158.09 259.623 159.613 276.105 169.457 291.379L169.458 291.38C170.28 292.653 171.166 293.682 171.921 294.558C172.699 295.46 173.289 296.149 173.662 296.833C174.008 297.469 174.138 298.052 174.004 298.744C173.86 299.482 173.398 300.443 172.339 301.765C168.059 307.079 160.634 310.583 152.453 312.579C144.297 314.569 135.554 315.02 128.826 314.357H128.825C104.297 311.957 81.6452 299.494 62.8248 282.409C44.0066 265.326 29.0777 243.674 19.9977 223.019C11.5193 203.713 6.7716 185.975 19.4401 167.703L19.441 167.702C29.4943 153.18 46.1403 141.369 64.694 132.226C83.2327 123.09 103.586 116.662 120.945 112.863Z" fill="white" stroke="white" stroke-width="2"></path>
<path d="M342.543 109.61C358.93 107.739 376.361 109.661 391.046 112.881L391.047 112.882C408.406 116.681 428.759 123.107 447.298 132.243C465.852 141.386 482.498 153.198 492.551 167.721C504.824 185.441 500.771 202.624 492.78 221.23L491.995 223.036C482.915 243.691 467.986 265.345 449.167 282.428C430.347 299.512 407.695 311.974 383.167 314.374H383.166C376.428 315.037 367.685 314.583 359.532 312.591C351.353 310.592 343.932 307.087 339.652 301.782V301.781L339.28 301.304C338.476 300.227 338.105 299.413 337.98 298.769C337.845 298.08 337.974 297.497 338.322 296.859C338.696 296.174 339.288 295.483 340.068 294.579C340.824 293.702 341.712 292.672 342.534 291.398V291.397C352.378 276.123 353.902 259.641 346.988 242.948V242.947C346.515 241.806 345.783 240.396 345.013 238.908C344.233 237.401 343.4 235.785 342.684 234.173C341.966 232.556 341.385 230.985 341.097 229.574C340.805 228.148 340.836 227.006 341.201 226.167L341.202 226.166C341.261 226.03 341.423 225.804 341.776 225.505C342.117 225.214 342.577 224.903 343.144 224.579C344.277 223.931 345.741 223.284 347.298 222.679C350.405 221.471 353.754 220.48 355.288 220.026L355.289 220.027C365.385 217.065 375.943 214.998 386.466 213.828H387.263L387.411 213.005C387.488 212.577 387.397 212.133 387.086 211.782C386.824 211.487 386.491 211.356 386.287 211.292C386.072 211.224 385.843 211.184 385.699 211.157C385.52 211.124 385.444 211.107 385.402 211.093L385.373 211.083L384.219 210.737C359.838 203.653 326.554 208.376 303.24 216.485C301.364 217.136 298.169 218.586 295.172 219.866C293.654 220.514 292.173 221.126 290.891 221.593C289.585 222.068 288.576 222.36 287.962 222.424C286.866 222.531 285.529 222.288 284.014 221.943C282.568 221.614 280.942 221.187 279.498 221.074C277.308 220.901 274.48 220.941 272.144 221.031L271.176 221.072C270.336 221.11 269.397 221.312 268.596 221.472C267.738 221.645 267.033 221.772 266.483 221.758C265.941 221.743 265.842 221.605 265.804 221.537C265.715 221.378 265.602 220.911 265.85 219.798C268.563 217.053 271.421 214.695 274.25 212.077C277.112 209.428 279.858 206.582 282.043 203.03H282.044C288.884 191.893 289.028 178.085 289.745 164.883C290.469 151.548 291.766 138.772 300.45 128.954L300.449 128.953C310.911 117.131 326.152 111.481 342.543 109.61Z" fill="white" stroke="white" stroke-width="2"></path>
<path d="M255.869 11.6735C258.905 11.5737 263.622 12.6493 268.401 14.1686C273.147 15.677 277.809 17.5733 280.684 19.0182V19.0192C291.208 24.3258 304.017 34.9608 314.954 47.112C325.902 59.2758 334.84 72.8095 337.77 83.8542V83.8561C338.329 85.9548 338.558 87.142 338.319 88.0983C338.103 88.9654 337.434 89.8392 335.507 91.0495C332.81 92.7346 328.688 94.174 324.265 95.612C319.907 97.0287 315.275 98.4386 311.772 100.059C301.289 104.893 293.893 110.821 288.582 117.582C283.274 124.339 280.084 131.881 277.949 139.892C275.818 147.89 274.729 156.394 273.645 165.06C272.558 173.748 271.475 182.61 269.365 191.433V191.435C268.575 194.76 267.531 199.171 265.621 202.843C263.714 206.511 261.065 209.216 257.144 209.541C254.668 209.746 252.691 209.223 251.072 208.247C249.44 207.262 248.116 205.78 247.021 203.987C244.813 200.371 243.643 195.685 242.71 191.817C240.576 182.975 239.485 174.085 238.397 165.364C237.311 156.665 236.229 148.123 234.103 140.087C231.973 132.037 228.787 124.456 223.473 117.665C218.155 110.87 210.743 104.912 200.225 100.059H200.224C196.721 98.4487 192.085 97.038 187.724 95.6188C183.575 94.2685 179.693 92.9158 177.011 91.3639L176.49 91.0504C174.562 89.8398 173.893 88.9656 173.677 88.0983C173.438 87.142 173.668 85.9548 174.227 83.8561V83.8551C177.883 70.0784 190.429 52.2723 206.105 37.7448C221.794 23.2046 240.348 12.2002 255.868 11.6725L255.869 11.6735Z" fill="white" stroke="white" stroke-width="2"></path>
<path d="M200.535 314.596C201.853 314.315 203.437 314.692 205.225 315.362C206.105 315.692 206.975 316.068 207.859 316.435C208.726 316.796 209.605 317.147 210.439 317.39H210.441C216.808 319.232 223.429 320.67 230.078 321.448C231.778 321.647 233.304 321.663 234.49 321.701C235.094 321.72 235.596 321.745 236.013 321.795C236.438 321.845 236.704 321.915 236.865 321.991C237 322.054 237.011 322.095 237.014 322.102C237.028 322.134 237.073 322.274 237.01 322.631C236.878 323.377 236.366 324.597 235.263 326.572C224.883 345.127 206.527 360.655 185.31 371.794C164.099 382.929 140.112 389.634 118.571 390.609C113.45 390.841 105.402 391.244 97.9133 390.433C94.1701 390.028 90.6143 389.323 87.6604 388.167C84.7007 387.008 82.436 385.431 81.1379 383.339L81.137 383.339C79.0293 379.946 77.9953 375.201 77.8528 369.7C77.7107 364.215 78.4568 358.073 79.8235 351.967C82.5654 339.719 87.7512 327.829 93.0227 321.806L93.0237 321.807C93.9513 320.75 94.5729 320.204 95.0276 319.945C95.4129 319.725 95.6361 319.731 95.8811 319.802C96.239 319.907 96.6404 320.154 97.3743 320.607C98.0641 321.033 98.9403 321.562 100.102 322.05L100.103 322.051C118.054 329.56 141.858 330.371 160.554 324.763C162.329 324.231 163.932 323.454 165.396 322.822C166.818 322.208 168.155 321.706 169.613 321.515C169.673 321.543 169.714 321.568 169.739 321.588C169.776 321.617 169.786 321.637 169.79 321.646C169.802 321.671 169.845 321.806 169.745 322.141C169.54 322.834 168.907 323.801 167.995 324.885C166.211 327.006 163.753 329.122 163.144 329.612L163.143 329.613C161.903 330.615 160.462 331.495 158.964 332.422C157.493 333.334 155.966 334.292 154.678 335.412C153.501 336.431 152.669 337.341 152.18 338.166C151.694 338.985 151.458 339.881 151.8 340.728C152.132 341.548 152.883 342.008 153.604 342.272C154.345 342.544 155.248 342.684 156.194 342.746C159.954 342.991 165.405 342.05 167.785 341.387L167.784 341.386C175.817 339.163 184.87 332.501 190.34 326.686L190.341 326.684C190.95 326.034 191.787 324.943 192.703 323.72C193.636 322.475 194.671 321.063 195.716 319.704C196.761 318.344 197.791 317.07 198.695 316.112C199.147 315.632 199.55 315.251 199.893 314.983C200.258 314.697 200.465 314.611 200.532 314.597L200.535 314.596Z" fill="white" stroke="white" stroke-width="2"></path>
<path d="M310.087 314.502C310.472 314.475 310.824 314.481 311.203 314.541L311.49 314.595L311.5 314.597C311.57 314.611 311.779 314.698 312.145 314.983C312.489 315.252 312.893 315.632 313.345 316.111C314.25 317.069 315.277 318.343 316.321 319.703C317.364 321.062 318.397 322.473 319.329 323.719C320.243 324.942 321.08 326.033 321.689 326.683L321.691 326.685C324.964 330.158 329.475 333.908 334.414 336.911C339.341 339.907 344.773 342.207 349.877 342.689H349.878C351.097 342.803 353.85 343.068 356.153 342.785C357.281 342.647 358.477 342.359 359.32 341.718C359.763 341.38 360.134 340.925 360.313 340.333C360.491 339.744 360.451 339.115 360.249 338.481C360.103 338.026 359.787 337.608 359.472 337.261C359.138 336.892 358.717 336.507 358.25 336.12C357.317 335.344 356.126 334.496 354.914 333.674C353.7 332.85 352.433 332.03 351.355 331.321C350.257 330.599 349.38 330.008 348.886 329.611C348.277 329.121 345.819 327.005 344.035 324.884C343.122 323.799 342.49 322.832 342.285 322.14C342.186 321.804 342.228 321.671 342.24 321.645C342.244 321.636 342.253 321.617 342.292 321.587C342.316 321.567 342.357 321.542 342.417 321.515C343.874 321.705 345.212 322.207 346.634 322.821C348.098 323.453 349.701 324.23 351.476 324.763H351.477C370.152 330.351 393.955 329.559 411.926 322.051L411.925 322.05C413.088 321.566 413.964 321.04 414.655 320.615C415.39 320.163 415.791 319.913 416.151 319.807C416.397 319.735 416.62 319.73 417.003 319.947C417.457 320.205 418.079 320.749 419.006 321.807C424.277 327.819 429.465 339.708 432.207 351.96C433.573 358.067 434.319 364.21 434.177 369.696C434.035 375.199 433.001 379.946 430.893 383.338L430.892 383.339C429.594 385.43 427.328 387.005 424.367 388.163C421.411 389.318 417.854 390.02 414.11 390.425C406.619 391.233 398.571 390.83 393.458 390.608H393.459C352.08 388.732 307.06 367.778 282.694 335.526L282.692 335.524L282.37 335.088C281.5 333.891 279.863 331.508 278.331 329.129C277.456 327.772 276.625 326.431 275.996 325.325C275.68 324.771 275.422 324.287 275.236 323.895C275.036 323.477 274.959 323.245 274.945 323.165L274.944 323.164L274.914 322.929C274.898 322.716 274.923 322.567 274.958 322.465C275.002 322.334 275.08 322.222 275.214 322.113C275.522 321.866 276.086 321.673 276.927 321.569C277.741 321.469 278.659 321.468 279.56 321.48C280.413 321.492 281.321 321.52 281.965 321.448L281.969 321.447C288.6 320.689 295.243 319.25 301.612 317.389V317.39C302.875 317.021 304.298 316.366 305.588 315.815C306.936 315.24 308.155 314.771 309.183 314.628L310.087 314.502Z" fill="white" stroke="white" stroke-width="2"></path>
<path d="M230.442 234.708C240.828 233.168 248.214 237.783 255.116 244.894L255.344 245.128L255.665 245.183C255.933 245.229 256.165 245.177 256.312 245.131C256.468 245.082 256.612 245.012 256.733 244.944C256.976 244.809 257.23 244.624 257.475 244.429C257.969 244.034 258.54 243.5 259.091 242.965C259.643 242.428 260.209 241.857 260.677 241.392C261.169 240.903 261.521 240.566 261.704 240.424V240.423C271.185 233.048 281.048 233.165 288.03 237.617C294.928 242.015 299.19 250.751 297.474 261.197L297.387 261.696C296.044 269.065 290.7 277.987 283.967 286.225C277.253 294.439 269.277 301.828 262.85 306.143L262.849 306.144C261.003 307.387 259.645 308.265 258.519 308.831C257.405 309.39 256.599 309.602 255.853 309.583C255.102 309.563 254.292 309.307 253.178 308.707C252.334 308.252 251.368 307.63 250.167 306.823L248.884 305.954L248.241 305.512C241.56 300.841 233.335 293.084 226.61 284.46C219.86 275.802 214.758 266.441 214.085 258.559L214.034 257.801C213.815 253.297 215.404 247.866 218.355 243.367C221.306 238.867 225.52 235.445 230.443 234.711L230.442 234.708Z" fill="white" stroke="white" stroke-width="2"></path>
<path d="M256.171 328.728C256.237 328.748 256.353 328.805 256.513 328.957C256.52 328.968 256.53 328.983 256.542 329.004C256.583 329.075 256.636 329.179 256.702 329.32C256.832 329.6 256.988 329.98 257.163 330.441C257.511 331.359 257.916 332.542 258.316 333.767C259.114 336.211 259.88 338.778 260.13 339.64V339.641C263.39 350.927 264.469 362.479 265.001 374.174C265.532 385.828 265.521 397.708 266.622 409.435V409.436C267.794 421.911 270.093 434.7 272.209 447.412C274.329 460.145 276.268 472.814 276.749 485.136V485.137C276.819 486.925 276.848 488.811 276.545 490.576C276.244 492.332 275.625 493.892 274.456 495.084L274.455 495.085C271.669 497.934 266.493 499.547 260.836 500.107C255.223 500.662 249.406 500.154 245.568 499.005H245.567C241.126 497.679 238.56 496.286 237.089 494.303C235.627 492.331 235.105 489.578 235.284 485.138V485.136C235.764 472.814 237.703 460.145 239.823 447.412C241.939 434.7 244.238 421.911 245.411 409.436C246.511 397.775 246.504 385.969 247.025 374.378C247.531 363.111 248.536 351.97 251.508 341.058L251.801 340.003C252.169 338.715 252.766 336.515 253.426 334.377C254.099 332.198 254.789 330.254 255.314 329.398C255.593 328.951 255.856 328.771 256.003 328.727C256.061 328.71 256.111 328.709 256.171 328.728Z" fill="white" stroke="white" stroke-width="2"></path>
<path d="M199.508 226.875C202.714 226.464 204.169 226.99 204.792 227.645C205.396 228.28 205.557 229.405 205.149 231.166C204.752 232.875 203.896 234.852 202.963 236.831C202.054 238.76 201.051 240.73 200.478 242.27C192.49 263.725 199.666 282.972 216.214 297.876V297.877C216.875 298.472 217.699 299.043 218.489 299.587C219.3 300.146 220.09 300.687 220.781 301.264C222.158 302.413 222.818 303.439 222.629 304.599C222.621 304.609 222.614 304.625 222.597 304.641C222.549 304.686 222.462 304.749 222.317 304.817C222.019 304.956 221.57 305.076 220.965 305.155C219.76 305.312 218.16 305.282 216.452 305.14C213.046 304.856 209.449 304.145 208.216 303.798C199.268 301.239 190.468 295.891 183.892 288.843C177.316 281.795 173.017 273.108 172.929 263.868C172.86 256.575 175.356 247.82 179.986 240.627C184.614 233.435 191.287 227.934 199.509 226.876L199.508 226.875Z" fill="white" stroke="white" stroke-width="2"></path>
<path d="M309.039 226.722C310.645 226.553 312.541 226.819 314.478 227.352C316.724 227.969 318.921 228.916 320.599 229.811V229.81C329.46 234.55 335.264 243.383 337.596 253.159C339.929 262.939 338.758 273.547 333.809 281.752C330.254 287.635 323.191 294.139 315.106 298.84C307.257 303.403 298.649 306.15 291.535 305.155L290.851 305.048C290.016 304.901 289.547 304.701 289.303 304.53C289.098 304.386 289.094 304.297 289.091 304.258C289.085 304.158 289.12 303.942 289.334 303.579C289.54 303.228 289.864 302.827 290.287 302.39C291.132 301.515 292.261 300.612 293.318 299.81C294.322 299.05 295.349 298.321 295.818 297.898C312.109 283.227 319.295 264.347 311.917 243.296L311.554 242.291C311.169 241.251 310.589 240.017 309.982 238.734C309.367 237.434 308.713 236.063 308.144 234.694C307.574 233.324 307.105 231.995 306.851 230.787C306.595 229.568 306.579 228.566 306.818 227.804C306.84 227.735 306.968 227.534 307.312 227.299C307.633 227.08 307.991 226.934 308.231 226.887L309.039 226.728V226.722Z" fill="white" stroke="white" stroke-width="2"></path>
<path d="M192.37 382.762C194.014 382.425 196.295 382.469 199.415 383.004H199.416C206.346 384.186 214.007 387.663 220.263 392.603C226.527 397.549 231.27 403.87 232.559 410.685V410.686C232.731 411.59 232.712 412.138 232.634 412.442C232.569 412.695 232.489 412.713 232.464 412.723C232.366 412.761 232.125 412.792 231.662 412.681C231.218 412.574 230.677 412.361 230.065 412.058C228.84 411.451 227.468 410.557 226.206 409.694C224.989 408.863 223.812 408.015 223.102 407.608L223.1 407.607L221.616 406.762C220.095 405.899 218.464 405.008 216.779 404.276C214.78 403.409 212.647 402.741 210.444 402.609L210.44 402.585H209.609L209.611 403.589L208.657 403.799C210.054 410.191 214.694 415.758 219.328 420.033C219.811 420.479 220.67 421.147 221.623 421.888C222.597 422.645 223.712 423.509 224.763 424.382C225.819 425.26 226.78 426.121 227.459 426.87C227.799 427.246 228.042 427.565 228.19 427.82C228.312 428.029 228.331 428.128 228.334 428.141C228.305 428.428 228.204 428.605 228.066 428.738C227.909 428.891 227.646 429.04 227.231 429.149C226.379 429.373 225.155 429.359 223.748 429.169C220.965 428.793 217.906 427.795 216.757 427.357V427.357L216.147 427.118C209.843 424.592 203.711 420.125 198.835 414.646C193.957 409.164 190.386 402.727 189.123 396.296L189.009 395.674C188.558 393.059 188.273 390.815 188.28 388.946C188.288 387.069 188.59 385.685 189.21 384.708C189.803 383.773 190.762 383.091 192.37 382.762Z" fill="white" stroke="white" stroke-width="2"></path>
<path d="M312.6 383.002C315.87 382.442 318.224 382.387 319.896 382.72C321.528 383.046 322.456 383.727 323.011 384.65C323.596 385.625 323.853 387.012 323.816 388.908C323.78 390.792 323.458 393.047 323.006 395.672V395.673C321.784 402.785 316.767 411.127 309.993 417.767C303.214 424.413 294.866 429.168 287.126 429.389C285.738 429.429 284.838 429.317 284.292 429.139C284.025 429.053 283.882 428.962 283.81 428.901C283.747 428.848 283.736 428.815 283.732 428.801C283.717 428.747 283.698 428.524 283.961 428.037C284.211 427.574 284.634 427.024 285.203 426.412C286.337 425.191 287.901 423.878 289.353 422.719C290.751 421.603 292.124 420.574 292.709 420.03L292.708 420.029C297.342 415.753 301.982 410.189 303.378 403.797L303.643 402.584H302.381C297.426 402.565 292.699 405.439 288.896 407.605C288.255 407.969 287.422 408.543 286.547 409.147C285.653 409.764 284.684 410.434 283.716 411.037C282.743 411.642 281.81 412.154 280.998 412.467C280.145 412.796 279.617 412.829 279.345 412.742H279.346C279.344 412.742 279.348 412.754 279.332 412.721C279.299 412.654 279.254 412.497 279.254 412.203C279.253 411.609 279.432 410.779 279.733 409.833C280.329 407.963 281.283 405.991 281.635 405.24L281.636 405.238C286.992 393.724 299.592 385.229 312.6 383.002Z" fill="white" stroke="white" stroke-width="2"></path>
</svg></svg></g></g></svg></g></svg>