<svg width="320" height="180" viewBox="0 0 320 180" fill="none" xmlns="http://www.w3.org/2000/svg">
<path d="M0 0H320V180H0V0Z" fill="black"/>
<g clip-path="url(#clip0_214_115)">
<path d="M154.12 88.0692L154.794 88.1973C155.009 88.256 155.933 88.4535 156.012 88.6436C156.092 88.8337 155.85 89.2098 155.775 89.3975C155.497 90.1009 155.558 90.7935 155.955 91.4374C156.083 91.6449 156.252 91.6962 156.07 91.9334C155.702 92.4111 154.81 92.5475 154.249 92.4897C152.213 92.2814 150.498 90.3274 149.749 88.5436C149.4 87.7129 149.197 86.9318 149.73 86.1275C150.566 84.8637 152.49 84.0834 153.92 83.7561C155.13 83.4792 156.801 83.423 157.678 84.4595C158.412 85.3274 157.89 86.7119 158.438 87.6451C158.611 87.9402 158.876 88.1204 159.105 88.3659C159.16 88.5973 158.97 88.4907 158.847 88.4849C158.745 88.48 158.61 88.4767 158.51 88.4849C158.399 88.494 158.26 88.5544 158.156 88.5428C158.034 88.5296 157.681 88.3452 157.534 88.2915C157.161 88.1543 156.797 88.0601 156.403 87.9956C155.631 87.8683 154.874 87.8294 154.12 88.0692Z" fill="white"/>
<path d="M164.825 88.089C164.83 88.0601 164.79 88.0626 164.769 88.0551C163.777 87.7336 162.392 87.9344 161.424 88.2866C161.274 88.3411 160.911 88.5304 160.788 88.5436C160.683 88.5544 160.544 88.4949 160.433 88.4858C160.333 88.4775 160.199 88.4808 160.097 88.4858C159.975 88.4916 159.784 88.5982 159.839 88.3667C160.068 88.1221 160.332 87.9411 160.506 87.646C161.054 86.7128 160.532 85.3283 161.266 84.4604C162.143 83.4238 163.812 83.4792 165.023 83.7569C166.453 84.0843 168.377 84.8646 169.214 86.1284C169.747 86.9335 169.545 87.7138 169.195 88.5445C168.445 90.3282 166.731 92.2822 164.695 92.4905C164.133 92.5484 163.241 92.4112 162.873 91.9342C162.691 91.6978 162.861 91.6458 162.989 91.4383C163.386 90.7944 163.447 90.1017 163.168 89.3983C163.094 89.2107 162.852 88.8354 162.931 88.6445C162.979 88.5288 163.41 88.3957 163.535 88.3568C163.953 88.2287 164.389 88.1394 164.824 88.089H164.825Z" fill="white"/>
<path d="M159.465 79.4114C159.73 79.4023 160.263 79.6048 160.503 79.7313C161.379 80.1934 162.622 81.5737 162.867 82.5417C162.912 82.7169 162.92 82.7905 162.756 82.8979C162.525 83.0492 162.06 83.1508 161.778 83.2872C160.078 84.1072 160.409 85.6545 160.06 87.1804C159.996 87.4639 159.885 87.959 159.522 87.9904C159.083 88.0285 158.962 87.5267 158.886 87.1969C158.533 85.6678 158.872 84.1105 157.166 83.2872C156.884 83.1517 156.417 83.0492 156.187 82.8979C156.023 82.7905 156.031 82.7169 156.076 82.5417C156.382 81.3365 158.161 79.4577 159.465 79.4114Z" fill="white"/>
<path d="M157.187 92.4151C157.32 92.3854 157.486 92.497 157.614 92.5358C157.873 92.6143 158.143 92.6755 158.413 92.7086C158.683 92.7416 158.838 92.6532 158.657 92.9921C157.795 94.6039 155.615 95.6785 153.834 95.7628C153.415 95.7826 152.5 95.833 152.261 95.4305C151.893 94.8114 152.307 93.2706 152.753 92.7383C152.907 92.554 152.911 92.659 153.09 92.7375C153.817 93.0557 154.784 93.0905 155.543 92.8524C155.683 92.8086 155.792 92.7259 155.932 92.7102C156.099 92.764 155.739 93.0913 155.687 93.1351C155.58 93.2252 155.441 93.2921 155.341 93.3831C154.965 93.7228 155.651 93.6211 155.841 93.5657C156.161 93.4732 156.526 93.1929 156.747 92.9466C156.84 92.8433 157.09 92.4366 157.187 92.4151Z" fill="white"/>
<path d="M161.648 92.4153C161.687 92.4095 161.718 92.4062 161.758 92.4153C161.857 92.4368 162.105 92.8435 162.198 92.9468C162.462 93.2394 162.927 93.5808 163.329 93.6205C163.43 93.6304 163.763 93.6634 163.711 93.4956C163.686 93.4113 163.347 93.2097 163.258 93.1353C163.206 93.0915 162.846 92.7641 163.014 92.7104C163.153 92.7261 163.263 92.8088 163.402 92.8526C164.16 93.0898 165.127 93.0559 165.855 92.7377C166.034 92.66 166.038 92.5542 166.193 92.7385C166.638 93.27 167.052 94.8116 166.685 95.4307C166.446 95.8332 165.53 95.7819 165.112 95.7629C163.403 95.6819 161.543 94.7777 160.535 93.3816C160.474 93.2973 160.222 92.9096 160.209 92.8327C160.181 92.6707 160.441 92.7195 160.533 92.7087C160.803 92.6765 161.073 92.6153 161.332 92.536C161.43 92.5062 161.552 92.4302 161.649 92.4161L161.648 92.4153Z" fill="white"/>
<path d="M158.416 88.986C158.862 88.9166 159.178 89.1257 159.465 89.4357C159.498 89.4414 159.641 89.272 159.681 89.2398C160.484 88.5868 161.376 89.2472 161.211 90.1945C161.097 90.8491 160.312 91.7542 159.776 92.1303C159.474 92.3427 159.455 92.3336 159.157 92.122C158.592 91.7203 157.743 90.7392 157.709 90.0217C157.69 89.6142 157.982 89.0538 158.417 88.986H158.416Z" fill="white"/>
<path d="M160.259 100.235C160.009 100.502 159.36 100.517 159.032 100.414C158.664 100.299 158.566 100.162 158.581 99.7761C158.621 98.7123 158.901 97.5914 158.997 96.5243C159.087 95.5258 158.995 94.5116 159.26 93.5362C159.29 93.4271 159.36 93.1544 159.409 93.0701C159.437 93.0229 159.48 92.9998 159.523 93.0444C159.555 93.0775 159.661 93.4462 159.681 93.5205C159.951 94.4992 159.859 95.52 159.949 96.5243C160.045 97.5914 160.325 98.7123 160.365 99.7761C160.371 99.9298 160.371 100.116 160.259 100.235Z" fill="white"/>
<path d="M157.148 88.6497C157.684 88.5777 157.323 89.1125 157.232 89.3679C156.911 90.2689 157.197 91.0773 157.866 91.708C157.966 91.8014 158.172 91.8882 158.142 92.0419C158.101 92.1593 157.606 92.0667 157.499 92.0353C156.751 91.8113 156.029 91.1004 156.022 90.2805C156.016 89.6366 156.441 88.7447 157.148 88.6497Z" fill="white"/>
<path d="M161.608 88.6486C161.771 88.6122 162 88.7006 162.143 88.78C162.895 89.2007 163.12 90.343 162.7 91.0696C162.4 91.5903 161.518 92.2045 160.895 92.0896C160.599 92.035 161.008 91.7747 161.079 91.7085C161.748 91.0779 162.033 90.2695 161.714 89.3685C161.653 89.1982 161.467 88.8899 161.518 88.7188C161.528 88.6858 161.576 88.6568 161.608 88.6502V88.6486Z" fill="white"/>
<path d="M157.569 96.277C157.624 96.5382 157.806 96.7697 157.995 96.9515C158.068 97.0218 158.385 97.2474 158.378 97.3342C158.362 97.5136 157.945 97.3764 157.847 97.3375C157.298 97.1193 156.78 96.5341 156.682 95.9448C156.608 95.4935 156.636 95.2579 157.157 95.3513C157.74 95.4554 158.44 95.9613 158.55 96.5738C158.611 96.9052 158.211 96.5523 158.102 96.487C157.942 96.3919 157.758 96.2762 157.568 96.277H157.569Z" fill="white"/>
<path d="M161.375 96.2769C161.185 96.2761 161.002 96.3918 160.842 96.4869C160.745 96.5447 160.518 96.7447 160.417 96.7109C160.325 96.6794 160.459 96.3926 160.487 96.3298C160.713 95.8206 161.243 95.4487 161.788 95.3511C162.333 95.2536 162.337 95.4933 162.262 95.9446C162.158 96.5786 161.415 97.4077 160.751 97.4275C160.28 97.4415 160.86 97.039 160.951 96.9514C161.139 96.7695 161.322 96.5381 161.376 96.2769H161.375Z" fill="white"/>
</g>
<defs>
<clipPath id="clip0_214_115">
<rect width="21.0958" height="21.8265" fill="white" transform="translate(149 79)"/>
</clipPath>
</defs>
</svg>
