<svg width="24" height="24" viewBox="0 0 24 24" fill="none" xmlns="http://www.w3.org/2000/svg">
<path d="M21.043 3.01926C21.7633 2.96639 22.5429 2.97035 22.8675 3.73834C23.2975 4.7588 22.5917 5.963 22.0245 6.78783C21.4031 7.69065 20.6591 8.49961 19.9032 9.28875C19.9679 9.69456 20.08 10.0924 20.1288 10.5035C20.5035 13.6151 19.0563 16.6792 16.4311 18.3513C13.7901 20.0327 10.372 20.0406 7.72307 18.3711C6.13344 19.1166 4.3578 20.1292 2.53598 19.9864C0.962182 19.8635 0.727365 18.3156 1.25109 17.0823C1.86847 15.6283 3.06366 14.3818 4.12958 13.249C3.40138 9.9087 4.86569 6.41639 7.74154 4.6134C10.3826 2.95713 13.6832 2.96771 16.3519 4.56317C17.7859 3.87052 19.4336 3.13822 21.0443 3.02058L21.043 3.01926ZM11.5567 3.81104C10.343 3.87581 9.23091 4.24857 8.26526 4.97955C7.14262 5.82817 6.70069 7.39588 6.63077 8.75869C6.60175 9.33502 6.64529 10.4295 7.5054 10.0792C8.58583 9.63904 9.23619 7.44214 9.96571 6.58955C10.7665 5.65369 11.1886 6.36484 12.1081 6.23265C13.0276 6.10047 13.1727 4.88041 12.6542 4.24593C12.306 3.81897 12.0923 3.78328 11.5567 3.81236V3.81104ZM16.1791 4.97426C15.1528 4.37811 14.0499 3.95644 12.8587 3.83351C13.8811 4.68214 13.3732 6.86846 11.9036 6.70587C11.3891 6.64904 10.9063 6.22605 10.4406 6.65168C9.83115 7.20817 9.42484 8.61065 8.93937 9.36013C8.51723 10.0118 7.48825 11.1499 6.66507 10.4969C5.83134 9.83467 6.30361 8.00392 6.55954 7.13415L6.83657 6.36616C5.25089 8.30001 4.75356 10.953 5.45273 13.3574C5.47252 13.4274 5.83662 14.5021 5.9039 14.4096C5.87487 13.6085 6.34978 12.1188 7.18352 11.8425C7.56081 11.7183 8.02649 11.8716 8.30879 12.1439C8.45522 12.2854 8.81273 12.8828 9.01193 12.8524C9.09504 12.8405 9.27313 12.7017 9.33645 12.637C9.78893 12.1809 10.0515 11.4909 10.5686 11.0204C11.2229 10.4242 12.1068 10.333 12.3785 11.331C12.6331 12.2695 12.2123 13.2701 12.3561 14.2192C12.3798 14.247 12.5223 14.1399 12.5553 14.1188C13.1173 13.7473 13.6542 13.2794 14.2069 12.8894C14.2386 12.8392 14.1357 12.3845 14.1278 12.2721C14.075 11.5293 14.232 10.7401 14.5539 10.07C14.8903 9.36938 15.7055 8.58685 15.6106 7.77789C15.538 7.16191 14.9905 6.72967 15.0116 6.06346C15.0261 5.61139 15.2808 5.23334 15.7095 5.08398L16.1831 4.97294L16.1791 4.97426ZM20.1895 4.06351C19.679 4.10978 19.0114 4.29748 18.5141 4.4442C18.3518 4.49179 17.0036 4.93857 17.0036 5.02053C17.9891 5.80306 18.774 6.77064 19.3584 7.88628C19.8676 7.27559 20.3715 6.5988 20.7594 5.90087C21.2633 4.99409 21.8108 3.91679 20.1895 4.06351ZM14.4721 12.637C14.4932 12.6621 14.5987 12.5748 14.6264 12.555C15.9113 11.6443 17.7028 9.89019 18.7252 8.67938C18.8268 8.55909 19.0523 8.35289 19.0114 8.20352C18.9455 7.96162 18.5484 7.34036 18.3875 7.11697C17.8888 6.42697 16.6408 5.24127 15.7214 5.63783C14.8758 6.00265 15.8045 7.16323 15.9839 7.6576C16.3572 8.69128 15.4945 9.4976 15.0169 10.3158C14.5842 11.0574 14.3164 11.7553 14.4734 12.637H14.4721ZM12.3535 18.8443C12.8323 18.9091 13.3679 18.8721 13.8507 18.8087C17.7292 18.2971 20.1987 14.1743 19.6842 10.4414C19.6724 10.3594 19.5602 9.69191 19.5154 9.69324C18.0682 11.1235 16.5406 12.4678 14.947 13.7341C15.3665 14.4043 16.468 14.97 17.2187 14.5827C17.3347 14.5219 17.4205 14.3726 17.5616 14.4334L17.6118 14.4836C17.6711 14.748 17.4047 14.9661 17.1751 15.0467C16.2517 15.3719 15.129 14.7704 14.6093 14.0024L12.9999 15.1709C12.9629 15.2146 12.9933 15.2212 13.0183 15.2489C13.116 15.3547 13.2782 15.4366 13.3956 15.5675C14.228 16.4981 13.7808 17.8662 12.8561 18.5403L12.3535 18.8443ZM11.492 10.9662C10.3997 11.097 10.124 13.0309 9.30743 13.3389C8.27713 13.7275 8.08585 11.9628 7.08194 12.5035C6.28383 12.9331 6.27327 14.551 6.51205 15.3045C6.69014 15.8649 7.22046 16.4941 7.65579 16.8814C7.70592 16.9264 7.89457 17.0942 7.93546 17.1114C7.99878 17.1378 8.18875 17.0202 8.26394 16.9819C9.59501 16.2866 10.8403 15.282 12.0857 14.4426C12.1266 14.3593 12.0448 14.0672 12.0382 13.9509C11.9946 13.2014 12.2769 12.3871 12.1609 11.643C12.0975 11.2411 11.9696 10.9093 11.4933 10.9662H11.492ZM6.81942 17.6732C6.79304 17.6692 6.76137 17.6613 6.74159 17.6415C5.90785 16.8444 5.20208 16.0182 4.70475 14.9608C4.56227 14.6594 4.48048 14.3316 4.33669 14.0315C3.56628 14.8815 2.8803 15.8226 2.32359 16.8285C2.04129 17.3401 1.61387 18.0539 1.99907 18.621C2.42649 19.2515 3.46338 18.9699 4.07549 18.8034C5.0174 18.5482 5.91709 18.1424 6.79963 17.738L6.81942 17.6732ZM8.90771 17.7366C8.87077 17.7882 9.01852 17.8649 9.05678 17.8887C9.46969 18.1477 10.5066 18.5905 10.9802 18.6223C12.112 18.7003 13.5895 17.7393 13.4616 16.4849C13.4154 16.0301 13.0566 15.6904 12.7505 15.389L12.7017 15.3732C11.4801 16.2245 10.2559 17.0903 8.90903 17.7366H8.90771Z" fill="black"/>
</svg>
