<svg width="24" height="24" viewBox="0 0 24 24" fill="none" xmlns="http://www.w3.org/2000/svg">
<path d="M18.9145 16.4002C18.8205 17.0219 18.9255 17.9447 18.4324 18.4012C17.7197 19.0604 16.5388 19.6612 15.6769 20.1081C15.1189 20.3981 14.42 20.8255 13.8067 20.9573C13.2252 21.0822 12.4849 20.4925 11.9476 20.301C9.6327 20.8019 6.80535 21.0572 4.51116 20.3578C3.82193 20.1483 3.20867 19.893 3.34955 19.0479C3.65066 17.2369 6.44071 14.6267 7.87027 13.5637C11.2335 11.0631 16.6741 8.09627 20.9462 8.15871C21.536 8.16704 22.7031 8.24475 22.9518 8.88447C23.1645 9.43261 22.6658 10.762 22.4379 11.3046C21.6548 13.1696 20.3192 14.9611 18.9131 16.4002H18.9145ZM18.9324 15.7702C20.2833 14.252 21.6355 12.4245 22.2874 10.4803C22.3882 10.1806 22.6658 9.2758 22.5291 9.00798C22.3799 8.71656 21.583 8.63053 21.2819 8.60971C17.1907 8.33911 11.5788 11.3934 8.35232 13.7511C7.77635 14.1729 6.04016 15.5107 5.78602 16.1004C5.10784 17.6796 7.69348 18.4775 8.80673 18.669C11.699 19.1658 14.0402 18.0029 16.3965 16.4293C16.92 16.081 17.4131 15.6591 17.9476 15.3303C18.5761 14.9445 18.757 15.043 18.931 15.7688L18.9324 15.7702ZM18.4214 15.6009C17.42 16.328 16.4076 17.033 15.344 17.6699C14.6645 18.0765 13.931 18.3971 13.217 18.7509C12.8109 19.1062 12.9076 19.3934 13.3123 19.6931C14.3482 20.4591 16.2625 19.3448 17.1741 18.7759C17.4435 18.608 18.1589 18.1348 18.2805 17.8683C18.4076 17.588 18.5222 16.2572 18.496 15.9256C18.4918 15.8701 18.4642 15.6106 18.4214 15.5995V15.6009Z" fill="currentColor"/>
<path d="M7.01105 4.22741C8.49309 3.27684 10.2099 2.84388 11.9517 3.05065C13.9434 3.28794 15.7279 4.36895 16.7182 6.16045C18.2983 5.77745 19.9392 5.44024 21.5677 5.61509C21.7983 5.64007 22.4793 5.70806 22.6133 5.88153C22.8398 6.17571 22.587 6.41717 22.2514 6.38387C21.6851 6.32697 21.2265 6.20486 20.6215 6.20902C15.8425 6.23538 9.69613 9.51587 6.0663 12.4897C4.79834 13.5277 1.87983 16.328 1.77072 18.014C1.74724 18.3846 1.87983 18.447 1.95994 18.7523C2.04972 19.0937 1.71133 19.2172 1.44751 19.0562C1.13674 18.8661 1 18.4345 1 18.0876C1.00138 16.7846 2.8605 14.4893 3.75138 13.5665C3.84945 13.4652 4.39503 12.9851 4.39779 12.9199C2.70304 9.85169 4.19475 6.03556 7.00967 4.22879L7.01105 4.22741ZM8.29696 4.15386C6.41436 5.24874 5.1326 7.51622 5.48619 9.70876C5.58425 10.3138 5.88122 11.6474 6.75 11.145C7.04834 10.9729 7.37017 10.676 7.66713 10.4761C10.0442 8.87337 12.4959 7.60364 15.1961 6.64475C15.482 6.54345 15.9088 6.45186 16.1616 6.33391C16.1865 6.32281 16.221 6.33391 16.2238 6.28673C16.0193 5.79549 15.6533 5.36253 15.2707 5.00035C13.5083 3.33096 10.4088 2.92576 8.29834 4.15386H8.29696Z" fill="currentColor"/>
</svg>
