<svg width="24" height="24" viewBox="0 0 24 24" fill="none" xmlns="http://www.w3.org/2000/svg">
<path d="M19.6704 10.7559C19.5847 10.8389 19.3782 10.8041 19.3432 10.6769C19.3691 10.1277 19.4055 9.62007 19.2718 9.08029C18.8354 7.31362 16.589 5.83627 15.0204 5.24961C14.7399 5.14514 14.0543 4.92682 13.7998 5.0996C13.5232 5.28712 13.4972 6.37872 13.5193 6.70286C13.7063 9.57988 16.2124 9.60265 17.9511 11.0546C19.2003 12.0966 19.9924 14.1379 19.4626 15.7585C19.3964 15.9608 19.3146 16.3104 19.0458 16.1603C18.9497 16.0974 19.0341 15.4692 19.0263 15.3058C18.9134 13.0891 16.1761 10.7947 14.2023 10.3634C13.7569 10.2657 13.6167 10.3956 13.5271 10.855C13.2596 12.2091 14.4841 14.6696 14.8152 16.0559C15.3892 18.4574 14.7321 20.6286 12.6752 21.9506C10.1899 23.5485 7.70058 22.0671 5.18533 22.7288C4.92822 22.7971 4.25039 23.1614 4.0595 22.9163C3.81798 22.6069 4.37894 22.2774 4.54386 22.0979C5.14377 21.4443 5.53074 20.1558 5.66968 19.2785C5.92419 17.6698 5.51645 16.2528 6.84614 15.0353C8.10701 13.8807 9.80679 14.0454 11.3806 14.032C11.8857 13.8204 12.0506 13.1038 12.1363 12.5962C12.1831 12.323 12.1662 12.106 12.1805 11.8394C12.3428 8.6115 12.2182 5.33667 12.8765 2.1556C12.9323 1.88772 13.0051 1.44304 13.1063 1.20463C13.1635 1.07069 13.2505 0.963539 13.405 1.01176C13.618 1.07873 13.6686 1.74575 13.7296 1.96139C13.9621 2.76771 14.9723 3.71868 15.6567 4.14595C16.0943 4.41919 16.5747 4.6067 17.0253 4.85315C18.9952 5.92869 20.4768 7.76098 19.8574 10.1947C19.8314 10.2965 19.7249 10.705 19.6717 10.7572L19.6704 10.7559ZM8.51735 19.5838C8.44723 19.5115 8.48229 19.3642 8.55501 19.3012C9.9717 18.2136 11.1637 16.818 11.7104 15.0553C11.6689 14.8772 11.1767 15.0044 11.0456 15.0031C9.66135 14.9857 8.22908 14.4352 7.2396 15.8255C6.19428 17.2948 6.87471 19.1927 6.21246 20.7371C6.15013 20.8831 5.75149 21.5809 5.77226 21.6599L5.84628 21.7095C6.22934 21.6171 6.61241 21.6238 7.00197 21.6157C8.85107 21.5782 11.2676 21.8488 12.6791 20.3473C14.1101 18.8257 14.1309 16.7698 13.331 14.9053L12.8077 15.9862C12.0364 17.402 10.4379 19.1499 8.87444 19.5691C8.77705 19.5946 8.59786 19.6696 8.51605 19.5852L8.51735 19.5838Z" fill="currentColor"/>
</svg>
