<svg width="24" height="24" viewBox="0 0 24 24" fill="none" xmlns="http://www.w3.org/2000/svg">
<path d="M2.3735 4.01545C4.98538 3.96533 7.6218 4.05442 10.2405 4.0405C10.524 4.03911 10.7285 3.97229 11.0339 4.06139C11.4728 4.18946 12.0849 5.27391 12.4284 5.64004C12.502 5.71939 12.5811 5.81962 12.6915 5.83772H21.5782C22.2693 5.88227 22.8923 6.09944 23 6.88876V19.6335C22.9673 20.0818 22.8296 20.4089 22.3525 20.4744C21.7254 20.5607 20.9961 20.4827 20.369 20.4813C14.5755 20.466 8.7737 20.4646 2.98558 20.5175C2.59161 20.5217 1.60739 20.5732 1.30339 20.3644C1.20115 20.2934 1.12754 20.1834 1.08256 20.0665C1.07165 20.04 1.06211 20.0122 1.05529 19.9844C1.05393 19.905 1.05257 19.8257 1.04984 19.7463C0.948963 14.7431 1.03757 9.73006 1.00758 4.72264C1.04984 4.35234 1.0512 4.08784 1.48061 4.03911C1.72735 4.01127 2.10768 4.02101 2.37214 4.01545H2.3735ZM2.50437 4.54862C2.27944 4.59039 2.03952 4.54306 1.85549 4.72125C1.67146 4.89944 1.70281 5.15419 1.65919 5.38807V18.5324C1.65919 19.1115 1.76415 19.3273 2.10359 19.3802C8.24887 19.4345 14.4105 19.4484 20.5544 19.3732C21.2292 19.2451 21.7036 18.8651 21.7568 18.1328V7.55698C21.6613 6.51429 20.9102 6.37507 20.0419 6.33888C17.4791 6.23169 14.8863 6.44886 12.3275 6.37507C12.1462 6.36951 11.8327 6.34166 11.6691 6.27902C11.421 6.18436 11.2043 5.86556 11.0393 5.65396C10.8553 5.41869 10.3318 4.58203 10.0728 4.54027L2.50437 4.54862Z" fill="currentColor"/>
<path d="M16.2531 7.75049C16.5499 7.70873 17.1365 7.8897 17.1807 8.23355C17.2069 8.43123 16.8176 8.92404 16.6893 9.09249C16.1454 9.81221 15.5271 10.479 14.9211 11.1459C14.899 11.5858 15.0233 12.0117 15.0026 12.4628C14.9211 14.2906 13.8045 15.9264 12.0059 16.3802C10.6201 16.7296 8.35092 16.202 7.02998 15.6646C6.90989 15.6159 6.18523 15.3041 6.15211 15.2498C6.00304 15.0076 6.36053 14.9672 6.47924 14.9115C8.70703 13.8633 7.8968 10.3148 10.7278 9.85536C11.8444 9.67439 12.4173 10.2897 13.3807 10.4957C14.1771 10.6656 14.4891 10.4456 14.9487 9.84144C15.4084 9.23727 15.7645 8.56905 15.9978 7.86325C16.0433 7.79365 16.1717 7.76302 16.2517 7.75188L16.2531 7.75049ZM10.4158 13.5556C10.5345 13.4387 11.1653 13.1936 11.3738 13.0711C11.7727 12.8345 12.2433 12.4391 12.5539 12.0925C12.674 11.9588 13.1792 11.3575 12.9846 11.1932C12.1081 10.834 11.0825 10.4749 10.2557 11.1445C9.06867 12.105 9.09904 13.8048 7.85401 14.6943C7.7988 14.7333 7.45234 14.8517 7.57795 14.9491C7.70356 15.0465 8.30813 15.2359 8.49171 15.2888C10.7609 15.9403 13.4539 15.8261 14.2241 13.1449C14.4311 12.4224 14.4077 11.8029 13.516 12.3305C12.7223 12.7997 11.625 13.77 10.6809 13.841C10.478 13.8563 10.1991 13.77 10.4158 13.5556Z" fill="currentColor"/>
</svg>
