<svg width="22" height="22" viewBox="0 0 22 22" fill="none" xmlns="http://www.w3.org/2000/svg">
<path d="M14.3291 13.7539L14.4756 13.9004L18.4678 17.8809L18.7139 18.126C18.623 18.2246 18.5313 18.3227 18.4365 18.418C17.8828 18.9742 17.2697 19.4606 16.5996 19.8818V16.8682H11.5762C11.2749 16.8682 10.9863 16.8017 10.7051 16.665C10.4923 16.5616 10.3054 16.4298 10.1426 16.2695L9.9873 16.0996L8.20703 13.8682L8.05664 13.6807H5.9043C5.68372 13.6806 5.51057 13.6085 5.35645 13.4561H5.35547C5.20307 13.3053 5.13184 13.1339 5.13184 12.9131V11.5664C5.13184 11.4255 5.15298 11.2993 5.19238 11.1846V11.1836C5.23876 11.0482 5.30204 10.9104 5.38086 10.7686L10.1387 3.63086L10.2227 3.50488V0.730469L11.543 2.05078C11.6298 2.13766 11.687 2.22395 11.7236 2.30859C11.7595 2.39149 11.7792 2.48312 11.7793 2.58789V10.2227H12.2793C12.8538 10.2227 13.3282 10.4202 13.7305 10.8242C14.1338 11.2298 14.3291 11.7031 14.3291 12.2705V13.7539Z" fill="black" stroke="black"/>
</svg>
