<svg width="24" height="24" viewBox="0 0 24 24" fill="none" xmlns="http://www.w3.org/2000/svg">
<path d="M12.2478 12.6518C12.3073 12.6413 12.3019 12.5874 12.3168 12.5452C12.7087 11.4226 12.9101 10.4316 13.4412 9.31815C14.586 6.91231 17.0093 4.28537 19.5935 3.32066C19.9516 3.18642 20.8734 2.83502 21.0748 3.31408C21.1843 3.57599 20.672 3.94976 20.5098 4.14981C18.323 6.84651 21.7073 9.99858 18.8245 12.4149C17.2404 13.7416 13.5345 14.4602 12.7411 16.3659C12.1627 17.7557 12.6925 20.1471 12.7655 21.6593C12.7844 22.0396 12.8709 22.7279 12.4587 22.9056C11.9816 23.1109 11.0882 23.0004 11.0166 22.3844C10.953 21.8435 11.2828 20.6248 11.368 20.0128C11.6991 17.6201 11.6491 15.6499 10.2273 13.5942C8.95546 11.7543 6.50375 11.2239 5.07111 9.62349C2.81403 7.10183 6.33076 4.49331 5.92124 1.72949C5.87528 1.42153 5.60362 0.897716 6.1983 1.01748C6.44158 1.06618 7.05654 1.53471 7.27414 1.70449C8.69596 2.82186 10.1543 4.54201 10.8706 6.18451C11.7572 8.21789 12.16 10.4461 12.2492 12.6505L12.2478 12.6518ZM11.664 12.873C11.6923 10.962 11.3382 9.00492 10.6517 7.21765C10.0313 5.60411 8.8595 3.91686 7.51741 2.79291C7.43767 2.7271 6.62945 2.08879 6.57809 2.1467C6.75379 3.46017 6.08342 4.67494 5.71986 5.90023C5.63201 6.19767 5.50631 6.59382 5.48063 6.89784C5.32115 8.78381 7.64716 10.1131 8.87842 11.216C9.63934 11.8977 10.3949 12.6887 10.8544 13.5981C10.9139 13.606 10.8828 13.531 10.8774 13.4968C10.7152 12.3307 10.0759 10.7843 9.44202 9.78405C9.32443 9.59848 8.98925 9.21155 8.92843 9.05493C8.90816 9.00492 8.90005 8.95491 8.91356 8.90095C8.9879 8.78118 9.31767 9.14706 9.3812 9.21286C9.99074 9.85249 10.4692 10.6185 10.9368 11.3581L11.6653 12.873H11.664ZM13.6737 13.914C14.2468 13.3981 14.836 12.9282 15.5456 12.5979C17.2458 11.8069 19.4718 11.3134 19.3097 8.94569C19.2488 8.05074 18.9772 7.0992 18.9528 6.17003C18.9366 5.53567 19.1042 4.92631 19.2772 4.32354C18.3798 4.6473 17.5648 5.2764 16.8796 5.91602C15.1901 7.4914 13.99 9.90645 13.3656 12.0846C13.1872 12.7058 13.0114 13.3678 12.9614 14.0087L13.7872 12.2096C14.3292 11.3147 15.0144 10.3052 15.8119 9.6077C15.9078 9.52478 16.1619 9.2734 16.266 9.38659C16.3917 9.52346 16.1146 9.65244 16.0227 9.74984C15.205 10.6132 14.5049 11.9017 14.0251 12.9782C13.89 13.2809 13.7494 13.5915 13.6751 13.914H13.6737Z" fill="currentColor"/>
<path d="M3.95336 3.44041C3.89389 3.48253 3.31408 3.10481 3.21136 3.04427C2.78022 2.78499 1.79629 2.22828 1.65167 1.75448C1.55166 1.4294 1.72466 1.16092 2.08687 1.20303C2.7248 1.27805 3.59925 2.80342 3.96147 3.29169L3.95201 3.4391L3.95336 3.44041Z" fill="currentColor"/>
<path d="M3.2087 5.96469C3.21546 6.01471 3.21276 6.03708 3.17627 6.07525C3.14383 6.10947 2.81946 6.25029 2.74512 6.28582C2.3775 6.45692 1.75444 6.73988 1.35573 6.6188C1.07732 6.53325 0.852958 6.18054 1.11921 5.96469C1.51657 5.64488 2.71809 5.88178 3.2087 5.96469Z" fill="currentColor"/>
<path d="M22.6061 6.09763C23.0575 6.03446 23.0994 6.35427 22.8412 6.6425C22.6061 6.90572 21.6735 7.41769 21.3261 7.5335C21.0869 7.61379 21.0356 7.55851 21.1734 7.3532C21.4316 6.97021 22.1303 6.16344 22.6047 6.09632L22.6061 6.09763Z" fill="currentColor"/>
<path d="M20.7423 12.7098L20.7504 12.5874C20.7734 12.5531 20.8099 12.5571 20.845 12.5584C21.037 12.5676 21.5681 12.7019 21.779 12.7558C22.0533 12.8256 22.8886 13.0612 22.7696 13.4494C22.6696 13.7784 22.0344 13.4455 21.8465 13.3507C21.4667 13.1585 21.1275 12.8901 20.741 12.7084L20.7423 12.7098Z" fill="currentColor"/>
</svg>
