<svg width="24" height="24" viewBox="0 0 24 24" fill="none" xmlns="http://www.w3.org/2000/svg">
<path d="M2.13541 12.2148C2.08904 11.5378 2.04812 10.8633 2.10949 10.185C2.54591 5.40736 6.31546 1.19881 11.4393 1.01045C13.7877 0.923511 15.6711 1.37005 17.5791 2.69123C20.6558 4.8212 22.261 8.5371 21.8573 12.17C22.0537 12.3281 22.2447 12.4137 22.422 12.5994C23.7585 13.9957 22.5488 16.9687 21.1086 17.9303C20.7145 18.1937 20.1362 18.444 19.6944 18.1397C19.3439 17.8973 19.4066 17.5232 19.5048 17.1715C19.7503 16.3022 20.2576 15.3485 20.5563 14.462C20.7349 13.9312 20.9027 12.9907 21.2 12.5586C21.3623 12.3228 21.3964 12.4032 21.4237 12.0475C21.6555 8.98628 20.113 5.43371 17.5968 3.55797C14.3155 1.11056 9.02533 1.26336 5.93087 3.93338C3.76651 5.80122 2.41771 9.05741 2.56364 11.8605C2.56773 11.9514 2.58682 12.2701 2.60455 12.3268C2.61546 12.361 2.77367 12.5178 2.82004 12.5915C3.14462 13.1132 3.35328 14.1959 3.57831 14.8269C3.84561 15.5777 4.31885 16.4734 4.50979 17.2097C4.61207 17.6023 4.62707 18.0291 4.17702 18.2135C3.22645 18.6021 2.1054 17.2743 1.69899 16.5788C0.928441 15.2589 0.460657 13.075 2.13404 12.2148H2.13541Z" fill="black"/>
<path d="M11.1898 3.45259C14.4588 3.23261 16.9682 4.27586 18.5884 7.05258C20.0695 9.59088 19.9099 13.3305 18.7943 15.9768C17.8533 18.2082 15.3848 21.55 13.1454 22.6763C12.2235 23.1399 11.6453 23.0938 10.7479 22.613C8.54807 21.4341 6.26234 18.332 5.27358 16.1243C3.04649 11.1597 4.65714 3.89255 11.1884 3.45127L11.1898 3.45259ZM11.5157 4.58936C8.75264 4.72767 6.39326 6.50988 5.39496 8.96915C4.79079 10.4576 4.79216 13.0763 5.19857 14.6201C5.86411 17.1465 8.49624 20.815 10.8202 22.1665C11.7776 22.7224 12.2712 22.7052 13.2205 22.1467C15.809 20.628 18.6757 16.4378 19.0043 13.5255C19.348 10.4761 18.8216 7.93776 16.2781 5.9685C14.8625 4.87257 13.3282 4.49715 11.5171 4.58804L11.5157 4.58936Z" fill="black"/>
<path d="M7.29863 12.7022C8.57242 12.5428 9.9144 14.2078 10.2731 15.2432C10.5104 15.9307 10.6454 17.1913 10.3099 17.8526C9.96213 18.5389 8.90655 17.8737 8.47286 17.5826C7.16634 16.7053 5.83663 15.0271 6.49671 13.4122C6.63855 13.0645 6.88949 12.7536 7.29863 12.7022Z" fill="black"/>
<path d="M16.4185 12.7035C17.2272 12.6218 17.5709 13.3068 17.6636 13.9772C17.8846 15.5527 16.3912 17.1847 15.0424 17.8789C14.336 18.2424 13.7645 18.3966 13.5654 17.464C13.1972 15.7397 14.4123 12.9063 16.4185 12.7048V12.7035Z" fill="black"/>
</svg>
